<svg width="300" height="308" viewBox="0 0 115 28" fill="none" xmlns="http://www.w3.org/2000/svg">
<mask id="mask0_2205_733" style="mask-type:alpha" maskUnits="userSpaceOnUse" x="0" y="0" width="28" height="28">
<rect y="0.0170898" width="27.9829" height="27.9829" fill="#D9D9D9"/>
</mask>
<g mask="url(#mask0_2205_733)">
<circle cx="13.5519" cy="-3.98639" r="19.9323" fill="#234FD1" fill-opacity="0.3"/>
<circle cx="13.5519" cy="-3.98655" r="16.7429" fill="#234FD1" fill-opacity="0.7"/>
<ellipse cx="13.5517" cy="-4.14341" rx="13.0265" ry="12.8695" fill="#234FD1"/>
<circle cx="13.5519" cy="-3.98639" r="19.9323" fill="#2353D1" fill-opacity="0.3"/>
<circle cx="13.5519" cy="-3.98655" r="16.7429" fill="#2353D1" fill-opacity="0.4"/>
<ellipse cx="13.766" cy="-3.9865" rx="11.1448" ry="10.9305" fill="#2353D1"/>
<circle cx="13.5519" cy="-3.98639" r="19.9323" fill="#2353D1" fill-opacity="0.3"/>
<circle cx="13.5519" cy="-3.98655" r="16.7429" fill="#2353D1" fill-opacity="0.4"/>
<ellipse cx="13.766" cy="-3.9865" rx="11.1448" ry="10.9305" fill="#2353D1"/>
<ellipse cx="14.0402" cy="11.2682" rx="25.0579" ry="25.0715" fill="#2A2B2A"/>
<circle cx="13.5519" cy="-3.98639" r="19.9323" fill="#2353D1" fill-opacity="0.3"/>
<circle cx="14.0266" cy="-2.67098" r="21.9799" fill="#2353D1" fill-opacity="0.3"/>
<circle cx="14.0266" cy="-0.52854" r="23.4986" fill="#2353D1" fill-opacity="0.3"/>
<circle cx="14.0266" cy="2.75284" r="24.3664" fill="#2353D1" fill-opacity="0.3"/>
</g>
<path d="M12.3948 8.30675L8.73731 19.4546H5.79103L10.7877 6.00699H12.6626L12.3948 8.30675ZM15.4334 19.4546L11.7667 8.30675L11.4712 6.00699H13.3645L18.3889 19.4546H15.4334ZM15.2671 14.4487V16.6191H8.16468V14.4487H15.2671ZM22.5821 6.00699V19.4546H19.8205V6.00699H22.5821ZM34.6165 9.46125V11.3454H28.7979V9.46125H34.6165ZM30.2387 6.99524H32.8986V16.4437C32.8986 16.7331 32.9356 16.9547 33.0095 17.1086C33.0895 17.2626 33.2065 17.3703 33.3604 17.4319C33.5144 17.4873 33.7083 17.515 33.9423 17.515C34.1086 17.515 34.2563 17.5089 34.3856 17.4966C34.5211 17.4781 34.635 17.4596 34.7274 17.4411L34.7366 19.3992C34.5088 19.4731 34.2625 19.5316 33.9977 19.5747C33.733 19.6178 33.4405 19.6393 33.1203 19.6393C32.5354 19.6393 32.0243 19.5439 31.5871 19.353C31.1561 19.156 30.8236 18.8419 30.5897 18.4109C30.3557 17.9799 30.2387 17.4134 30.2387 16.7115V6.99524ZM35.4663 14.5595V14.3656C35.4663 13.6328 35.5709 12.9586 35.7803 12.3429C35.9896 11.721 36.2944 11.1822 36.6946 10.7266C37.0949 10.2709 37.5875 9.91689 38.1724 9.66444C38.7573 9.40584 39.4285 9.27653 40.1858 9.27653C40.9432 9.27653 41.6174 9.40584 42.2085 9.66444C42.7996 9.91689 43.2953 10.2709 43.6955 10.7266C44.1019 11.1822 44.4098 11.721 44.6191 12.3429C44.8285 12.9586 44.9331 13.6328 44.9331 14.3656V14.5595C44.9331 15.2861 44.8285 15.9603 44.6191 16.5822C44.4098 17.1979 44.1019 17.7367 43.6955 18.1985C43.2953 18.6541 42.8027 19.0082 42.2178 19.2606C41.6328 19.5131 40.9617 19.6393 40.2043 19.6393C39.447 19.6393 38.7727 19.5131 38.1816 19.2606C37.5967 19.0082 37.101 18.6541 36.6946 18.1985C36.2944 17.7367 35.9896 17.1979 35.7803 16.5822C35.5709 15.9603 35.4663 15.2861 35.4663 14.5595ZM38.1262 14.3656V14.5595C38.1262 14.9782 38.1632 15.3692 38.237 15.7325C38.3109 16.0958 38.4279 16.416 38.588 16.693C38.7543 16.964 38.9698 17.1764 39.2345 17.3303C39.4993 17.4842 39.8226 17.5612 40.2043 17.5612C40.5738 17.5612 40.8909 17.4842 41.1556 17.3303C41.4204 17.1764 41.6328 16.964 41.7929 16.693C41.953 16.416 42.07 16.0958 42.1439 15.7325C42.2239 15.3692 42.2639 14.9782 42.2639 14.5595V14.3656C42.2639 13.9592 42.2239 13.5774 42.1439 13.2203C42.07 12.857 41.9499 12.5368 41.7837 12.2598C41.6236 11.9765 41.4111 11.7549 41.1464 11.5948C40.8816 11.4347 40.5614 11.3546 40.1858 11.3546C39.8102 11.3546 39.4901 11.4347 39.2253 11.5948C38.9667 11.7549 38.7543 11.9765 38.588 12.2598C38.4279 12.5368 38.3109 12.857 38.237 13.2203C38.1632 13.5774 38.1262 13.9592 38.1262 14.3656ZM49.1725 11.5948V19.4546H46.5125V9.46125H49.0062L49.1725 11.5948ZM48.7845 14.107H48.0641C48.0641 13.3681 48.1596 12.7031 48.3505 12.112C48.5413 11.5147 48.8092 11.0067 49.154 10.588C49.4988 10.1632 49.9083 9.83993 50.3824 9.61826C50.8626 9.39044 51.3983 9.27653 51.9894 9.27653C52.4574 9.27653 52.8853 9.34426 53.2732 9.47972C53.6611 9.61519 53.9936 9.83069 54.2707 10.1262C54.554 10.4218 54.7695 10.8128 54.9172 11.2992C55.0712 11.7856 55.1481 12.3798 55.1481 13.0818V19.4546H52.4697V13.0725C52.4697 12.6292 52.4081 12.2844 52.285 12.0381C52.1618 11.7918 51.9802 11.6194 51.7401 11.5209C51.5061 11.4162 51.2167 11.3639 50.8719 11.3639C50.5148 11.3639 50.2038 11.4347 49.939 11.5763C49.6804 11.7179 49.4649 11.9149 49.2925 12.1674C49.1263 12.4137 49.0001 12.7031 48.9138 13.0356C48.8276 13.3681 48.7845 13.7252 48.7845 14.107ZM56.746 14.5595V14.3656C56.746 13.6328 56.8506 12.9586 57.06 12.3429C57.2693 11.721 57.5741 11.1822 57.9744 10.7266C58.3746 10.2709 58.8672 9.91689 59.4521 9.66444C60.0371 9.40584 60.7082 9.27653 61.4656 9.27653C62.2229 9.27653 62.8971 9.40584 63.4882 9.66444C64.0793 9.91689 64.575 10.2709 64.9752 10.7266C65.3816 11.1822 65.6895 11.721 65.8988 12.3429C66.1082 12.9586 66.2129 13.6328 66.2129 14.3656V14.5595C66.2129 15.2861 66.1082 15.9603 65.8988 16.5822C65.6895 17.1979 65.3816 17.7367 64.9752 18.1985C64.575 18.6541 64.0824 19.0082 63.4975 19.2606C62.9125 19.5131 62.2414 19.6393 61.484 19.6393C60.7267 19.6393 60.0524 19.5131 59.4613 19.2606C58.8764 19.0082 58.3807 18.6541 57.9744 18.1985C57.5741 17.7367 57.2693 17.1979 57.06 16.5822C56.8506 15.9603 56.746 15.2861 56.746 14.5595ZM59.4059 14.3656V14.5595C59.4059 14.9782 59.4429 15.3692 59.5168 15.7325C59.5906 16.0958 59.7076 16.416 59.8677 16.693C60.034 16.964 60.2495 17.1764 60.5142 17.3303C60.779 17.4842 61.1023 17.5612 61.484 17.5612C61.8535 17.5612 62.1706 17.4842 62.4353 17.3303C62.7001 17.1764 62.9125 16.964 63.0726 16.693C63.2327 16.416 63.3497 16.0958 63.4236 15.7325C63.5036 15.3692 63.5437 14.9782 63.5437 14.5595V14.3656C63.5437 13.9592 63.5036 13.5774 63.4236 13.2203C63.3497 12.857 63.2296 12.5368 63.0634 12.2598C62.9033 11.9765 62.6909 11.7549 62.4261 11.5948C62.1613 11.4347 61.8412 11.3546 61.4656 11.3546C61.09 11.3546 60.7698 11.4347 60.505 11.5948C60.2464 11.7549 60.034 11.9765 59.8677 12.2598C59.7076 12.5368 59.5906 12.857 59.5168 13.2203C59.4429 13.5774 59.4059 13.9592 59.4059 14.3656ZM70.5076 11.5301V19.4546H67.8384V9.46125H70.3413L70.5076 11.5301ZM70.1381 14.107H69.3993C69.3993 13.4112 69.4824 12.7708 69.6486 12.1859C69.821 11.5948 70.0704 11.0837 70.3968 10.6527C70.7292 10.2155 71.1387 9.87687 71.6251 9.63674C72.1116 9.3966 72.675 9.27653 73.3153 9.27653C73.7587 9.27653 74.165 9.34426 74.5345 9.47972C74.9039 9.60903 75.221 9.8153 75.4858 10.0985C75.7567 10.3756 75.9661 10.7389 76.1138 11.1884C76.2616 11.6317 76.3355 12.1643 76.3355 12.7862V19.4546H73.6755V13.0818C73.6755 12.6261 73.614 12.2751 73.4908 12.0289C73.3677 11.7826 73.1922 11.6102 72.9644 11.5116C72.7427 11.4131 72.4749 11.3639 72.1608 11.3639C71.816 11.3639 71.5143 11.4347 71.2557 11.5763C71.0032 11.7179 70.7939 11.9149 70.6277 12.1674C70.4614 12.4137 70.3383 12.7031 70.2582 13.0356C70.1782 13.3681 70.1381 13.7252 70.1381 14.107ZM76.0861 13.8022L75.1348 13.9222C75.1348 13.2696 75.2149 12.6631 75.3749 12.1027C75.5412 11.5424 75.7844 11.0498 76.1046 10.625C76.4309 10.2001 76.8342 9.87071 77.3145 9.63674C77.7948 9.3966 78.3489 9.27653 78.977 9.27653C79.4573 9.27653 79.8944 9.34734 80.2885 9.48896C80.6826 9.62442 81.0181 9.84301 81.2952 10.1447C81.5785 10.4403 81.794 10.8282 81.9417 11.3084C82.0957 11.7887 82.1726 12.3767 82.1726 13.0725V19.4546H79.5034V13.0725C79.5034 12.6107 79.4419 12.2598 79.3187 12.0196C79.2017 11.7733 79.0293 11.604 78.8015 11.5116C78.5798 11.4131 78.3151 11.3639 78.0072 11.3639C77.687 11.3639 77.4069 11.4285 77.1667 11.5578C76.9266 11.681 76.7265 11.8534 76.5664 12.075C76.4063 12.2967 76.2862 12.5553 76.2062 12.8509C76.1261 13.1403 76.0861 13.4574 76.0861 13.8022ZM83.8074 14.5595V14.3656C83.8074 13.6328 83.9121 12.9586 84.1214 12.3429C84.3308 11.721 84.6356 11.1822 85.0358 10.7266C85.436 10.2709 85.9286 9.91689 86.5136 9.66444C87.0985 9.40584 87.7697 9.27653 88.527 9.27653C89.2844 9.27653 89.9586 9.40584 90.5497 9.66444C91.1408 9.91689 91.6365 10.2709 92.0367 10.7266C92.4431 11.1822 92.7509 11.721 92.9603 12.3429C93.1696 12.9586 93.2743 13.6328 93.2743 14.3656V14.5595C93.2743 15.2861 93.1696 15.9603 92.9603 16.5822C92.7509 17.1979 92.4431 17.7367 92.0367 18.1985C91.6365 18.6541 91.1439 19.0082 90.5589 19.2606C89.974 19.5131 89.3028 19.6393 88.5455 19.6393C87.7881 19.6393 87.1139 19.5131 86.5228 19.2606C85.9378 19.0082 85.4422 18.6541 85.0358 18.1985C84.6356 17.7367 84.3308 17.1979 84.1214 16.5822C83.9121 15.9603 83.8074 15.2861 83.8074 14.5595ZM86.4674 14.3656V14.5595C86.4674 14.9782 86.5043 15.3692 86.5782 15.7325C86.6521 16.0958 86.7691 16.416 86.9292 16.693C87.0954 16.964 87.3109 17.1764 87.5757 17.3303C87.8405 17.4842 88.1637 17.5612 88.5455 17.5612C88.9149 17.5612 89.232 17.4842 89.4968 17.3303C89.7615 17.1764 89.974 16.964 90.1341 16.693C90.2942 16.416 90.4111 16.0958 90.485 15.7325C90.5651 15.3692 90.6051 14.9782 90.6051 14.5595V14.3656C90.6051 13.9592 90.5651 13.5774 90.485 13.2203C90.4111 12.857 90.2911 12.5368 90.1248 12.2598C89.9647 11.9765 89.7523 11.7549 89.4875 11.5948C89.2228 11.4347 88.9026 11.3546 88.527 11.3546C88.1514 11.3546 87.8312 11.4347 87.5665 11.5948C87.3079 11.7549 87.0954 11.9765 86.9292 12.2598C86.7691 12.5368 86.6521 12.857 86.5782 13.2203C86.5043 13.5774 86.4674 13.9592 86.4674 14.3656ZM100.82 17.0625V9.46125H103.48V19.4546H100.977L100.82 17.0625ZM101.116 15.0121L101.901 14.9936C101.901 15.6586 101.824 16.2774 101.67 16.85C101.516 17.4165 101.285 17.9091 100.977 18.3278C100.669 18.7403 100.281 19.0636 99.8134 19.2976C99.3454 19.5254 98.7943 19.6393 98.1601 19.6393C97.6737 19.6393 97.2242 19.5716 96.8117 19.4361C96.4053 19.2945 96.0543 19.0759 95.7588 18.7804C95.4694 18.4787 95.2416 18.0938 95.0753 17.6259C94.9152 17.1518 94.8352 16.5822 94.8352 15.9172V9.46125H97.4951V15.9357C97.4951 16.2312 97.529 16.4806 97.5967 16.6838C97.6706 16.887 97.7722 17.0532 97.9015 17.1825C98.0308 17.3118 98.1817 17.4042 98.3541 17.4596C98.5326 17.515 98.7297 17.5427 98.9452 17.5427C99.4932 17.5427 99.9242 17.4319 100.238 17.2102C100.558 16.9886 100.783 16.6869 100.912 16.3051C101.048 15.9172 101.116 15.4862 101.116 15.0121ZM110.915 16.693C110.915 16.5022 110.86 16.3297 110.749 16.1758C110.638 16.0219 110.432 15.8803 110.13 15.751C109.834 15.6155 109.406 15.4924 108.846 15.3815C108.341 15.2707 107.87 15.1321 107.433 14.9659C107.002 14.7935 106.626 14.5872 106.306 14.3471C105.992 14.107 105.746 13.8237 105.567 13.4974C105.389 13.1649 105.3 12.7862 105.3 12.3614C105.3 11.9427 105.389 11.5486 105.567 11.1791C105.752 10.8097 106.014 10.4834 106.352 10.2001C106.697 9.91074 107.116 9.68599 107.609 9.5259C108.107 9.35966 108.668 9.27653 109.289 9.27653C110.158 9.27653 110.903 9.41507 111.525 9.69215C112.153 9.96923 112.633 10.351 112.965 10.8374C113.304 11.3177 113.473 11.8657 113.473 12.4814H110.813C110.813 12.2228 110.758 11.9919 110.647 11.7887C110.543 11.5794 110.376 11.4162 110.148 11.2992C109.927 11.1761 109.637 11.1145 109.28 11.1145C108.985 11.1145 108.729 11.1668 108.514 11.2715C108.298 11.37 108.132 11.5055 108.015 11.6779C107.904 11.8441 107.849 12.0289 107.849 12.232C107.849 12.386 107.879 12.5245 107.941 12.6477C108.009 12.7647 108.117 12.8724 108.264 12.9709C108.412 13.0694 108.603 13.1618 108.837 13.248C109.077 13.3281 109.373 13.4019 109.724 13.4697C110.444 13.6174 111.087 13.8114 111.654 14.0515C112.22 14.2855 112.67 14.6057 113.002 15.0121C113.335 15.4123 113.501 15.9388 113.501 16.5914C113.501 17.0348 113.403 17.4411 113.206 17.8106C113.009 18.18 112.725 18.5033 112.356 18.7804C111.986 19.0513 111.543 19.2637 111.026 19.4176C110.515 19.5654 109.939 19.6393 109.299 19.6393C108.369 19.6393 107.581 19.4731 106.934 19.1406C106.294 18.8081 105.808 18.3863 105.475 17.8752C105.149 17.358 104.986 16.8285 104.986 16.2866H107.507C107.519 16.6499 107.612 16.9424 107.784 17.1641C107.963 17.3857 108.187 17.5458 108.458 17.6443C108.735 17.7429 109.034 17.7921 109.354 17.7921C109.699 17.7921 109.985 17.7459 110.213 17.6536C110.441 17.5551 110.613 17.4258 110.73 17.2657C110.853 17.0994 110.915 16.9085 110.915 16.693Z" fill="white"/>
</svg>
